<svg width="17" height="14" viewBox="0 0 17 14" fill="none" xmlns="http://www.w3.org/2000/svg">
<path fill-rule="evenodd" clip-rule="evenodd" d="M16.3983 0.571066C16.6352 0.712897 16.7123 1.01995 16.5705 1.25688C15.8323 2.49013 15.054 3.81501 14.2837 5.12653L14.2553 5.17481C13.4762 6.50121 12.7056 7.81278 11.9956 8.99631C11.2862 10.179 10.6341 11.2392 10.092 12.0619C9.82108 12.473 9.5745 12.8296 9.35976 13.1146C9.1609 13.3785 8.97062 13.6066 8.8013 13.7572C8.63156 13.934 8.41131 14.0007 8.20331 13.9973C8.00264 13.9941 7.80994 13.9277 7.64515 13.85C7.31316 13.6934 6.93963 13.4155 6.5592 13.0871C5.78867 12.4219 4.86832 11.4413 3.99316 10.4442C3.11438 9.44287 2.267 8.40846 1.64016 7.62554C1.3265 7.23379 1.06754 6.90435 0.886854 6.67266C0.796499 6.5568 0.725689 6.46535 0.677368 6.40274L0.622112 6.33099L0.603159 6.30627C0.603089 6.30618 0.602782 6.30578 0.999973 6.00207L1.3972 5.6984L1.41518 5.72186L1.46904 5.79179C1.5164 5.85316 1.58616 5.94326 1.6754 6.05769C1.8539 6.28656 2.11019 6.61261 2.42078 7.00054C3.04243 7.77698 3.87954 8.79871 4.74475 9.78454C5.61358 10.7745 6.49672 11.7121 7.21268 12.3302C7.57549 12.6434 7.86595 12.8485 8.07164 12.9455C8.1111 12.9641 8.14201 12.9761 8.16512 12.9837C8.25352 12.8989 8.38517 12.7463 8.56108 12.5129C8.75809 12.2514 8.99179 11.9141 9.25698 11.5116C9.78709 10.7071 10.4304 9.66161 11.1381 8.4819C11.8453 7.30305 12.6134 5.9956 13.3931 4.66833L13.4224 4.61838C14.192 3.30815 14.9721 1.98016 15.7125 0.743268C15.8543 0.506333 16.1613 0.429235 16.3983 0.571066ZM0.999973 6.00207L1.3972 5.6984C1.22946 5.47904 0.915624 5.43714 0.696262 5.60488C0.4769 5.77261 0.435424 6.08691 0.603159 6.30627L0.999973 6.00207Z" fill="#CDCDCD"/>
</svg>
