<svg width="15" height="20" viewBox="0 0 15 20" fill="none" xmlns="http://www.w3.org/2000/svg">
<path d="M14.4315 19.9273L7.57289 12.9724C7.51047 12.9194 7.43517 12.8908 7.35787 12.8908C7.28057 12.8908 7.20527 12.9194 7.14286 12.9724L0.58309 19.9018C0.528947 19.9491 0.464565 19.9778 0.397159 19.9849C0.329754 19.992 0.261987 19.9771 0.201453 19.9419C0.140919 19.9066 0.0900087 19.8525 0.0544276 19.7855C0.0188465 19.7185 0 19.6413 0 19.5626V0.424074C0 0.311603 0.0383954 0.203738 0.10674 0.124209C0.175084 0.0446792 0.267778 0 0.364431 0H14.6356C14.7322 0 14.8249 0.0446792 14.8933 0.124209C14.9616 0.203738 15 0.311603 15 0.424074V19.5795C14.9994 19.6562 14.981 19.7313 14.9467 19.7967C14.9124 19.8622 14.8635 19.9156 14.8051 19.9513C14.7468 19.987 14.6813 20.0036 14.6155 19.9994C14.5497 19.9951 14.4861 19.9702 14.4315 19.9273Z" fill="#BE3030"/>
</svg>
