<svg width="23" height="13" viewBox="0 0 23 13" fill="none" xmlns="http://www.w3.org/2000/svg">
<path fill-rule="evenodd" clip-rule="evenodd" d="M23 11H0V10H23V11Z" fill="#9B9B9B"/>
<path fill-rule="evenodd" clip-rule="evenodd" d="M23 3H0V2H23V3Z" fill="#9B9B9B"/>
<path d="M12 10.5C12 11.8807 10.8807 13 9.5 13C8.11929 13 7 11.8807 7 10.5C7 9.11929 8.11929 8 9.5 8C10.8807 8 12 9.11929 12 10.5Z" fill="white"/>
<path fill-rule="evenodd" clip-rule="evenodd" d="M9.5 12C10.3284 12 11 11.3284 11 10.5C11 9.67157 10.3284 9 9.5 9C8.67157 9 8 9.67157 8 10.5C8 11.3284 8.67157 12 9.5 12ZM9.5 13C10.8807 13 12 11.8807 12 10.5C12 9.11929 10.8807 8 9.5 8C8.11929 8 7 9.11929 7 10.5C7 11.8807 8.11929 13 9.5 13Z" fill="#9B9B9B"/>
<path d="M6 2.5C6 3.88071 4.88071 5 3.5 5C2.11929 5 1 3.88071 1 2.5C1 1.11929 2.11929 0 3.5 0C4.88071 0 6 1.11929 6 2.5Z" fill="white"/>
<path fill-rule="evenodd" clip-rule="evenodd" d="M3.5 4C4.32843 4 5 3.32843 5 2.5C5 1.67157 4.32843 1 3.5 1C2.67157 1 2 1.67157 2 2.5C2 3.32843 2.67157 4 3.5 4ZM3.5 5C4.88071 5 6 3.88071 6 2.5C6 1.11929 4.88071 0 3.5 0C2.11929 0 1 1.11929 1 2.5C1 3.88071 2.11929 5 3.5 5Z" fill="#9B9B9B"/>
</svg>
