<svg width="16" height="19" viewBox="0 0 16 19" fill="none" xmlns="http://www.w3.org/2000/svg">
<path d="M7.99992 9.33333C8.9229 9.33333 9.82515 9.05964 10.5926 8.54686C11.36 8.03408 11.9581 7.30525 12.3114 6.45252C12.6646 5.5998 12.757 4.66149 12.5769 3.75625C12.3969 2.851 11.9524 2.01948 11.2998 1.36684C10.6471 0.714192 9.81559 0.269735 8.91034 0.0896708C8.0051 -0.0903936 7.06678 0.002022 6.21406 0.355231C5.36134 0.70844 4.63251 1.30658 4.11973 2.07401C3.60695 2.84144 3.33325 3.74369 3.33325 4.66667C3.33325 5.90435 3.82492 7.09133 4.70009 7.9665C5.57526 8.84167 6.76224 9.33333 7.99992 9.33333ZM7.99992 1.33334C8.65919 1.33334 9.30366 1.52883 9.85182 1.8951C10.4 2.26137 10.8272 2.78197 11.0795 3.39106C11.3318 4.00014 11.3978 4.67037 11.2692 5.31697C11.1406 5.96357 10.8231 6.55752 10.3569 7.02369C9.89077 7.48987 9.29682 7.80734 8.65022 7.93595C8.00362 8.06457 7.33339 7.99856 6.72431 7.74627C6.11522 7.49397 5.59462 7.06673 5.22835 6.51857C4.86208 5.97041 4.66659 5.32594 4.66659 4.66667C4.66659 3.78261 5.01777 2.93477 5.6429 2.30965C6.26802 1.68452 7.11586 1.33334 7.99992 1.33334Z" fill="#CDCDCD"/>
<path d="M8.66667 10.667H7.33333C5.38841 10.667 3.52315 11.4396 2.14788 12.8149C0.772617 14.1901 0 16.0554 0 18.0003C0 18.1771 0.070238 18.3467 0.195262 18.4717C0.320287 18.5968 0.489856 18.667 0.666667 18.667H15.3333C15.5101 18.667 15.6797 18.5968 15.8047 18.4717C15.9298 18.3467 16 18.1771 16 18.0003C16 16.0554 15.2274 14.1901 13.8521 12.8149C12.4769 11.4396 10.6116 10.667 8.66667 10.667ZM1.37333 17.3337C1.53726 15.8674 2.23567 14.513 3.33512 13.5291C4.43457 12.5453 5.85796 12.001 7.33333 12.0003H8.66667C10.142 12.001 11.5654 12.5453 12.6649 13.5291C13.7643 14.513 14.4627 15.8674 14.6267 17.3337H1.37333Z" fill="#CDCDCD"/>
</svg>
