<svg width="18" height="19" viewBox="0 0 18 19" fill="none" xmlns="http://www.w3.org/2000/svg">
<path fill-rule="evenodd" clip-rule="evenodd" d="M11.9979 13.5553C10.7232 14.4988 14.687 10.4454 13.5591 11.9862C13.5873 11.984 13.535 12.0694 13.3596 12.2836C13.3596 12.2836 16.372 15.2756 17.8507 16.7984C18.3641 17.3535 17.4379 18.4616 16.8086 17.8831C15.4695 16.5839 12.3009 13.3551 12.296 13.3498L11.9979 13.5553Z" fill="#CDCDCD"/>
<path d="M7.57161 15.068C9.50987 15.0492 11.4286 14.2464 12.8083 12.8829C14.447 11.2634 15.2908 8.86747 14.9965 6.57994C14.4922 2.66013 11.2697 0 7.52343 0C4.67701 0 1.91074 1.78057 0.697352 4.36241C-0.23151 6.33907 -0.233391 8.72558 0.697352 10.7056C1.90209 13.2694 4.62319 15.0406 7.47488 15.068C7.50725 15.068 7.53962 15.068 7.57161 15.068ZM7.48278 13.8121C4.58818 13.7843 1.88741 11.5457 1.35034 8.67552C0.97172 6.6522 1.68643 4.46253 3.17532 3.02558C4.91336 1.34738 7.64537 0.785468 9.91709 1.73653C11.9494 2.58749 13.4707 4.56339 13.7511 6.74027C13.9912 8.60627 13.3217 10.5619 12.0059 11.9089C10.8516 13.0906 9.23287 13.7959 7.5637 13.8121C7.5366 13.8121 7.50988 13.8121 7.48278 13.8121Z" fill="#CDCDCD"/>
</svg>
