<svg width="13" height="13" viewBox="0 0 13 13" fill="none" xmlns="http://www.w3.org/2000/svg">
<path d="M7.30223 12.3815H7.27478C7.02775 12.356 6.83561 12.2028 6.75327 11.9985L5.40833 7.63239L0.714758 6.38128C0.495175 6.33022 0.330489 6.12596 0.303041 5.89616C0.275593 5.66636 0.412832 5.4621 0.632414 5.3855L11.9684 0.840655C12.1879 0.764056 12.435 0.789589 12.5997 0.942786C12.7643 1.09598 12.8192 1.32578 12.7094 1.53004L7.82374 12.0496C7.74139 12.2538 7.52181 12.3815 7.30223 12.3815ZM2.55376 5.7685L6.03963 6.68768C6.23176 6.73874 6.369 6.86641 6.4239 7.04514L7.41202 10.2878L11.1175 2.34709L2.55376 5.7685Z" fill="white"/>
</svg>
