<svg width="24" height="24" viewBox="0 0 24 24" fill="none" xmlns="http://www.w3.org/2000/svg">
<path d="M12 24C18.6274 24 24 18.6274 24 12C24 5.37258 18.6274 0 12 0C5.37258 0 0 5.37258 0 12C0 18.6274 5.37258 24 12 24Z" fill="#9B9B9B"/>
<path fill-rule="evenodd" clip-rule="evenodd" d="M3.88241 11.0141C8.02398 9.20969 10.7857 8.02011 12.1675 7.44536C16.1129 5.80434 16.9327 5.51928 17.467 5.50987C17.5846 5.5078 17.8473 5.53692 18.0175 5.67504C18.1613 5.79166 18.2008 5.9492 18.2197 6.05978C18.2387 6.17035 18.2622 6.42223 18.2435 6.61905C18.0297 8.86548 17.1046 14.317 16.6339 16.833C16.4348 17.8976 16.0427 18.2546 15.663 18.2895C14.838 18.3655 14.2115 17.7443 13.4125 17.2205C12.1621 16.4009 11.4557 15.8906 10.242 15.0908C8.83933 14.1665 9.74861 13.6585 10.548 12.8282C10.7572 12.6109 14.3922 9.30458 14.4626 9.00465C14.4714 8.96713 14.4795 8.82731 14.3965 8.75347C14.3134 8.67964 14.1908 8.70489 14.1023 8.72497C13.9769 8.75343 11.9794 10.0737 8.10982 12.6858C7.54283 13.0751 7.02927 13.2648 6.56915 13.2549C6.06189 13.2439 5.08613 12.9681 4.36076 12.7323C3.47106 12.4431 2.76394 12.2902 2.82552 11.799C2.85759 11.5432 3.20989 11.2815 3.88241 11.0141Z" fill="white"/>
</svg>
