<svg width="17" height="22" viewBox="0 0 17 22" fill="none" xmlns="http://www.w3.org/2000/svg">
<path d="M15.4315 20.9273L8.57289 13.9724C8.51047 13.9194 8.43517 13.8908 8.35787 13.8908C8.28057 13.8908 8.20527 13.9194 8.14286 13.9724L1.58309 20.9018C1.52895 20.9491 1.46457 20.9778 1.39716 20.9849C1.32975 20.992 1.26199 20.9771 1.20145 20.9419C1.14092 20.9066 1.09001 20.8525 1.05443 20.7855C1.01885 20.7185 1 20.6413 1 20.5626V1.42407C1 1.3116 1.0384 1.20374 1.10674 1.12421C1.17508 1.04468 1.26778 1 1.36443 1H15.6356C15.7322 1 15.8249 1.04468 15.8933 1.12421C15.9616 1.20374 16 1.3116 16 1.42407V20.5795C15.9994 20.6562 15.981 20.7313 15.9467 20.7967C15.9124 20.8622 15.8635 20.9156 15.8051 20.9513C15.7468 20.987 15.6813 21.0036 15.6155 20.9994C15.5497 20.9951 15.4861 20.9702 15.4315 20.9273Z" fill="#BE3030" stroke="#BE3030" stroke-linecap="round"/>
</svg>
