<svg width="17" height="22" viewBox="0 0 17 22" fill="none" xmlns="http://www.w3.org/2000/svg">
<path fill-rule="evenodd" clip-rule="evenodd" d="M1.5 1.5V20.2623L7.79835 13.6091L7.81896 13.5915C7.96592 13.4666 8.15442 13.3908 8.35787 13.3908C8.56133 13.3908 8.74982 13.4666 8.89678 13.5915L8.91349 13.6057L15.5 20.2846V1.5H1.5ZM0.727527 0.798329C0.881735 0.618883 1.1086 0.5 1.36443 0.5H15.6356C15.8914 0.5 16.1183 0.618886 16.2725 0.798329C16.4247 0.975417 16.5 1.20141 16.5 1.42407V20.5795L16.5 20.5832C16.4989 20.7364 16.4623 20.8902 16.3896 21.0288C16.3168 21.1677 16.2077 21.2912 16.066 21.3778C15.9233 21.4651 15.7559 21.5094 15.5834 21.4983C15.4111 21.4872 15.252 21.4222 15.1224 21.3202L15.0976 21.3008L8.36083 14.4695L1.92981 21.2629L1.91186 21.2785C1.78509 21.3892 1.62551 21.4637 1.44934 21.4822C1.27267 21.5007 1.09899 21.4607 0.950002 21.374C0.802226 21.288 0.688369 21.1622 0.612844 21.02C0.537414 20.878 0.5 20.7198 0.5 20.5626V1.42407C0.5 1.20142 0.57534 0.975423 0.727527 0.798329Z" fill="#CDCDCD"/>
</svg>
