<svg width="128" height="33" viewBox="0 0 128 33" fill="none" xmlns="http://www.w3.org/2000/svg">
<path d="M127.003 0L17.5505 0.168311L13.1453 8.4092H44.1284L42.8866 10.7306C41.8971 12.5852 39.9562 13.7443 37.8462 13.7443H15.8969C12.4494 13.7443 9.2796 15.6371 7.66118 18.6667L0 32.9985H11.2109L17.2823 21.6391H38.3793C41.862 21.6391 49.488 19.3526 53.1526 12.4963L54.7806 9.44765C54.969 9.09833 55.1318 8.75218 55.2722 8.4092H62.429L49.2869 32.9985H60.4275L71.814 11.6929C72.8929 9.67312 75.0061 8.4092 77.3077 8.4092L111.93 8.24089L110.564 10.7973C109.651 12.5058 107.863 13.576 105.919 13.576H83.1174C80.0274 13.576 77.1896 15.2718 75.7403 17.9839L67.5908 32.9985H78.9325L85.087 21.4708H91.1968C93.1887 21.4708 94.9954 22.6236 95.8254 24.4273L99.6113 32.9985H112.568L106.187 21.4708C108.553 21.4708 113.098 21.3501 116.747 18.5237C119.534 16.3675 125.018 3.89021 127 0H127.003Z" fill="#273349"/>
</svg>
